<svg width="64" height="64" viewBox="0 0 64 64" fill="none" xmlns="http://www.w3.org/2000/svg">
<g clip-path="url(#clip0_992_7327)">
<path d="M64 32C64 41.3652 59.9761 49.791 53.564 55.6436C47.875 60.834 40.3076 64 32 64C23.6924 64 16.125 60.834 10.436 55.6436C4.02393 49.791 0 41.3652 0 32C0 14.3276 14.3276 0 32 0C49.6724 0 64 14.3276 64 32Z" fill="#F79009"/>
<path d="M64 32C64 41.3652 59.9761 49.791 53.564 55.6436C47.875 60.834 40.3076 64 32 64V0C49.6724 0 64 14.3276 64 32Z" fill="#F79009"/>
<g clip-path="url(#clip1_992_7327)">
<path d="M40.4774 13.4678C40.4588 12.6887 40.2176 11.9466 39.7539 11.2417C39.0861 10.2029 38.14 9.62779 36.8971 9.53503C35.6727 9.44228 34.4669 9.90605 33.2797 10.9263C32.2779 9.72054 31.2206 9.07127 30.1261 8.97851C29.2727 8.90431 28.475 9.12692 27.7145 9.64634C26.9539 10.1658 26.4159 10.8336 26.1006 11.6498L23.689 20.8139L23.893 21.055C24.06 21.0921 24.2826 21.1107 24.5423 21.1478C24.8206 21.1663 25.0061 21.1107 25.1174 20.9437L27.529 12.1321C27.6959 11.5942 28.0298 11.186 28.5121 10.8707C28.9759 10.5368 29.4953 10.3884 30.0519 10.444C31.035 10.5182 31.7214 11.0005 32.0739 11.8724C32.111 11.9466 32.1295 12.0023 32.111 12.0579C32.0924 12.2249 31.9626 12.4289 31.7214 12.6516C31.4432 12.9669 31.2762 13.1524 31.2391 13.2452C30.5342 14.6736 30.1632 15.6568 30.1075 16.2133C30.0704 16.6214 30.1075 16.9924 30.2374 17.3263C30.5898 18.291 31.2762 18.8289 32.2965 18.9031C33.9846 19.0516 34.8936 18.1982 35.042 16.3431C35.1348 15.1559 34.8194 13.8388 34.0588 12.3733L34.0774 12.1507C34.8936 11.3159 35.784 10.9449 36.7487 11.0005C37.2866 11.0191 37.769 11.2417 38.1956 11.6313C38.6037 12.0394 38.8634 12.5031 38.9747 13.0597L39.8837 22.1495L40.0878 22.3907C40.2547 22.4278 40.4588 22.4463 40.7371 22.4834C40.9968 22.502 41.2008 22.4463 41.3121 22.2794L40.4774 13.4678ZM32.9829 17.3263C32.7974 17.3263 32.649 17.3449 32.5748 17.3634C31.9255 17.4005 31.6287 17.0666 31.6843 16.3802L32.1295 14.8776L32.9087 13.5049C33.391 14.5252 33.595 15.4342 33.5208 16.2504C33.4466 16.9182 33.2797 17.2892 32.9829 17.3263Z" fill="white"/>
<path d="M52.016 24.3941L46.0056 22.4648C45.0781 22.168 44.2618 21.964 43.5384 21.8341C42.9262 21.7228 42.3326 21.6672 41.7946 21.6486C41.5905 21.6486 41.405 21.6486 41.2195 21.6486C40.9227 21.6672 40.6073 21.6857 40.3105 21.7414C39.012 21.9454 37.7876 22.4648 36.6189 23.3182C35.2462 24.3199 34.2073 25.6927 33.4653 27.4179C33.4653 27.4364 33.4653 27.4364 33.4468 27.455C33.2798 27.826 33.1499 28.197 33.0201 28.5866C32.0184 31.7402 32.0555 34.3744 33.187 36.4521V36.4706C33.7436 37.4909 34.5598 38.3999 35.6172 39.1605C36.6931 39.9396 38.0288 40.5703 39.6242 41.0898L41.9801 41.8503L23.7262 42.0359H23.7447L26.3047 41.2196C28.8091 40.4219 30.7198 39.346 32.0369 37.9732C31.8699 37.7321 31.7401 37.4909 31.6102 37.2498C30.2746 34.7454 30.1818 31.6475 31.332 28.0486C31.6473 27.0654 32.0369 26.1564 32.5192 25.3217C31.7772 23.9675 30.8311 22.873 29.6624 22.0011C28.4752 21.1106 27.2323 20.5541 25.8966 20.313C25.5256 20.2388 25.136 20.2017 24.7465 20.1831C24.6537 20.1831 24.561 20.1831 24.4868 20.1831C24.3569 20.1831 24.2085 20.1831 24.0786 20.1831C23.485 20.2017 22.8543 20.2573 22.1865 20.3686C21.4073 20.4985 20.5169 20.7396 19.5152 21.055L12.7998 23.1512L18.7731 42.073L19.1998 43.4457V43.4828L46.1911 43.2045V43.1489L52.1273 24.6353C52.1644 24.524 52.1088 24.4127 52.016 24.3941ZM40.0323 23.6521C40.125 23.1698 40.5146 22.7617 41.0155 22.6689C41.9059 22.5019 42.6479 23.2625 42.481 24.153C42.3882 24.6353 41.9801 25.0434 41.4978 25.1176C40.6259 25.2846 39.8653 24.524 40.0323 23.6521ZM40.7186 36.7674C39.1604 36.2666 38.1401 35.4132 37.6763 34.2075C37.2311 33.113 37.2682 31.7588 37.7876 30.1634C38.2885 28.5866 39.0491 27.4735 40.0694 26.8057C40.7001 26.379 41.405 26.175 42.1656 26.1379C42.2769 26.1379 42.3882 26.1379 42.4995 26.1379C42.9818 26.1564 43.4827 26.2492 44.0207 26.4347L46.0984 27.1025L42.7963 37.4167L40.7186 36.7674ZM24.2456 21.5373C24.4126 21.4631 24.5981 21.4075 24.7836 21.4075C25.0989 21.4075 25.3957 21.5373 25.6184 21.7414C25.9152 22.0196 26.0821 22.4463 26.0079 22.8915C25.9152 23.3924 25.5256 23.7819 25.0247 23.8747C24.2271 24.0231 23.5407 23.4109 23.5407 22.6504C23.5407 22.1495 23.8375 21.7228 24.2456 21.5373ZM21.6671 25.3402C22.0752 25.2104 22.4833 25.1176 22.8728 25.0805C23.0213 25.0619 23.1511 25.0434 23.2995 25.0434C24.2827 25.0063 25.1546 25.2475 25.9337 25.7669C27.0282 26.4903 27.8444 27.7147 28.3824 29.4214C28.9204 31.1466 28.9575 32.6121 28.4937 33.7993C27.9743 35.0979 26.8798 36.0254 25.1731 36.5448L22.9656 37.2312H22.9471L19.4224 26.0637L21.6671 25.3402Z" fill="white"/>
<path d="M16.1206 52.9993V48.0834C16.1206 47.8793 16.1763 47.7309 16.3061 47.601C16.436 47.4712 16.5844 47.4155 16.7884 47.4155H18.2354C19.2186 47.4155 19.9606 47.7123 20.5171 48.2874C21.0551 48.8625 21.3334 49.6416 21.3334 50.6248C21.3334 51.5523 21.0551 52.2758 20.5171 52.8323C19.9792 53.3889 19.2371 53.6486 18.3281 53.6486H16.807C16.64 53.6486 16.4916 53.5929 16.3618 53.5002C16.1948 53.4074 16.1206 53.2219 16.1206 52.9993ZM17.4377 48.6213V52.4428H18.3096C18.8476 52.4428 19.2742 52.2573 19.571 51.8863C19.8308 51.5523 19.9606 51.1071 19.9606 50.5506C19.9606 49.957 19.8308 49.4932 19.5525 49.1593C19.2557 48.7883 18.8105 48.6213 18.2354 48.6213H17.4377Z" fill="white"/>
<path d="M21.7417 52.9993V49.6416C21.7417 49.4375 21.7974 49.2706 21.9087 49.1407C22.02 49.0109 22.1684 48.9552 22.3724 48.9552C22.5579 48.9552 22.7063 49.0109 22.8362 49.1407C22.9475 49.2706 23.0031 49.4375 23.0031 49.6416V52.9993C23.0031 53.2033 22.9475 53.3703 22.8362 53.5001C22.7249 53.63 22.5765 53.6856 22.3724 53.6856C22.1869 53.6856 22.0385 53.63 21.9087 53.5001C21.8159 53.3888 21.7417 53.2219 21.7417 52.9993ZM21.7788 47.8793C21.7788 47.7123 21.8345 47.5639 21.9643 47.434C22.0942 47.3042 22.2426 47.2485 22.4095 47.2485C22.5765 47.2485 22.7249 47.3042 22.8547 47.434C22.9846 47.5639 23.0402 47.7123 23.0402 47.8793C23.0402 48.0462 22.9846 48.1946 22.8547 48.3245C22.7249 48.4543 22.5765 48.51 22.4095 48.51C22.2426 48.51 22.0942 48.4543 21.9643 48.3245C21.853 48.2132 21.7788 48.0648 21.7788 47.8793Z" fill="white"/>
<path d="M23.8193 52.9251L24.617 48.0277C24.6541 47.8607 24.7283 47.7123 24.8953 47.5825C25.0622 47.4341 25.2663 47.3599 25.4889 47.3599C25.6929 47.3599 25.8784 47.4155 26.0454 47.5454C26.2124 47.6752 26.3051 47.8236 26.3608 47.9906L27.3996 51.4596L28.457 47.9906C28.5126 47.8236 28.624 47.6752 28.7724 47.5639C28.9393 47.4341 29.1248 47.3599 29.3474 47.3599C29.57 47.3599 29.7741 47.4341 29.9225 47.5639C30.0895 47.6938 30.1822 47.8607 30.2008 48.0277L31.017 52.9251V53.0921C31.017 53.2776 30.9613 53.426 30.8315 53.5558C30.7016 53.6671 30.5532 53.7228 30.3863 53.7228C30.1637 53.7228 30.0153 53.6671 29.904 53.5744C29.8112 53.4816 29.737 53.3147 29.6999 53.1106L29.199 49.5303L28.1231 53.2219C28.0674 53.3703 28.0118 53.4816 27.9376 53.5558C27.8077 53.6671 27.6408 53.7228 27.4367 53.7228C27.2326 53.7228 27.0657 53.6671 26.9358 53.5558C26.8431 53.4631 26.7689 53.3518 26.7503 53.2219L25.6929 49.5303L25.155 53.1106C25.1179 53.3147 25.0622 53.4816 24.9509 53.5744C24.8396 53.6671 24.6912 53.7228 24.4686 53.7228C24.2831 53.7228 24.1347 53.6671 24.0234 53.5558C23.9121 53.4445 23.8379 53.2961 23.8379 53.0921C23.8008 52.9993 23.8008 52.9622 23.8193 52.9251Z" fill="white"/>
<path d="M31.5732 51.9232V49.6415C31.5732 49.4374 31.6289 49.2704 31.7402 49.1406C31.8515 49.0107 31.9999 48.9551 32.204 48.9551C32.3895 48.9551 32.5379 49.0107 32.6677 49.1406C32.779 49.2704 32.8347 49.4374 32.8347 49.6415V51.8861C32.8347 52.1458 32.9089 52.3313 33.0758 52.4797C33.2428 52.6281 33.4283 52.7023 33.6324 52.7023C33.855 52.7023 34.059 52.6281 34.2074 52.4797C34.3744 52.3313 34.4486 52.1272 34.4486 51.8861V49.6415C34.4486 49.4374 34.5042 49.2704 34.6155 49.1406C34.7269 49.0107 34.8753 48.9551 35.0793 48.9551C35.2648 48.9551 35.4132 49.0107 35.5431 49.1406C35.6544 49.2704 35.71 49.4374 35.71 49.6415V51.9232C35.71 52.4982 35.5245 52.9435 35.1535 53.2774C34.7825 53.6113 34.2816 53.7782 33.6138 53.7782C32.946 53.7782 32.4451 53.6113 32.0927 53.2774C31.7587 52.9435 31.5732 52.4797 31.5732 51.9232Z" fill="white"/>
<path d="M40.8301 49.7715V52.8881C40.8301 53.1292 40.8116 53.3147 40.7559 53.4075C40.6631 53.6116 40.4776 53.7043 40.2179 53.7043C40.051 53.7043 39.9026 53.6672 39.8284 53.5745C39.7356 53.4817 39.68 53.3519 39.6243 53.1663C39.4573 53.3519 39.2718 53.5003 39.0678 53.6116C38.8637 53.7229 38.6411 53.76 38.4185 53.76C37.8249 53.76 37.324 53.5374 36.9344 53.0736C36.5263 52.6098 36.3408 52.0347 36.3408 51.3298C36.3408 50.6434 36.5449 50.0684 36.953 49.586C37.3611 49.1223 37.8434 48.8811 38.4371 48.8811C38.6968 48.8811 38.9194 48.9368 39.1234 49.0295C39.3275 49.1223 39.513 49.2707 39.6429 49.4747C39.6614 49.3078 39.7171 49.1965 39.8469 49.0852C39.9582 48.9924 40.0881 48.9368 40.255 48.9368C40.5147 48.9368 40.7002 49.0295 40.793 49.215C40.8115 49.3263 40.8301 49.5118 40.8301 49.7715ZM37.6023 51.3298C37.6023 51.6823 37.6765 51.9605 37.8434 52.2017C38.0289 52.48 38.2886 52.6098 38.604 52.6098C38.9194 52.6098 39.1605 52.48 39.346 52.2017C39.513 51.9605 39.5872 51.6637 39.5872 51.3298C39.5872 50.9959 39.513 50.7176 39.346 50.4765C39.1605 50.1982 38.9194 50.0498 38.604 50.0498C38.2886 50.0498 38.0289 50.1797 37.8434 50.4579C37.6765 50.6991 37.6023 50.9959 37.6023 51.3298Z" fill="white"/>
<path d="M41.7207 52.9993V48.0834C41.7207 47.8793 41.7764 47.7309 41.9062 47.601C42.0361 47.4712 42.1845 47.4155 42.3885 47.4155H43.8355C44.8187 47.4155 45.5607 47.7123 46.1172 48.2874C46.6552 48.8625 46.9335 49.6416 46.9335 50.6248C46.9335 51.5523 46.6552 52.2758 46.1172 52.8323C45.5793 53.3889 44.8372 53.6486 43.9282 53.6486H42.4071C42.2401 53.6486 42.0917 53.5929 41.9619 53.5002C41.8135 53.4074 41.7207 53.2219 41.7207 52.9993ZM43.0378 48.6213V52.4428H43.9097C44.4477 52.4428 44.8743 52.2573 45.1711 51.8862C45.4308 51.5523 45.5607 51.1071 45.5607 50.5506C45.5607 49.957 45.4308 49.4932 45.1526 49.1593C44.8558 48.7883 44.4106 48.6213 43.8355 48.6213H43.0378Z" fill="white"/>
<path d="M47.5269 52.9993V49.6416C47.5269 49.4375 47.5825 49.2706 47.6938 49.1407C47.8051 49.0109 47.9535 48.9552 48.1576 48.9552C48.3431 48.9552 48.4915 49.0109 48.6213 49.1407C48.7327 49.2706 48.7883 49.4375 48.7883 49.6416V52.9993C48.7883 53.2033 48.7327 53.3703 48.6213 53.5001C48.51 53.63 48.3616 53.6856 48.1576 53.6856C47.9721 53.6856 47.8237 53.63 47.6938 53.5001C47.5825 53.3888 47.5269 53.2219 47.5269 52.9993ZM47.564 47.8793C47.564 47.7123 47.6196 47.5639 47.7495 47.434C47.8793 47.3042 48.0277 47.2485 48.1947 47.2485C48.3616 47.2485 48.51 47.3042 48.6399 47.434C48.7698 47.5639 48.8254 47.7123 48.8254 47.8793C48.8254 48.0462 48.7698 48.1946 48.6399 48.3245C48.51 48.4543 48.3616 48.51 48.1947 48.51C48.0277 48.51 47.8793 48.4543 47.7495 48.3245C47.6196 48.2132 47.564 48.0648 47.564 47.8793Z" fill="white"/>
</g>
</g>
<defs>
<clipPath id="clip0_992_7327">
<rect width="64" height="64" fill="white"/>
</clipPath>
<clipPath id="clip1_992_7327">
<rect width="39.3461" height="44.8" fill="white" transform="translate(12.7998 8.95996)"/>
</clipPath>
</defs>
</svg>
