<svg width="20" height="20" viewBox="0 0 20 20" fill="none" xmlns="http://www.w3.org/2000/svg">
<path d="M13.4915 1.66675H6.50817C3.47484 1.66675 1.6665 3.47508 1.6665 6.50841V13.4834C1.6665 16.5251 3.47484 18.3334 6.50817 18.3334H13.4832C16.5165 18.3334 18.3248 16.5251 18.3248 13.4917V6.50841C18.3332 3.47508 16.5248 1.66675 13.4915 1.66675ZM11.5998 13.4417H7.49984C7.15817 13.4417 6.87484 13.1584 6.87484 12.8167C6.87484 12.4751 7.15817 12.1917 7.49984 12.1917H11.5998C12.6665 12.1917 13.5415 11.3251 13.5415 10.2501C13.5415 9.17508 12.6748 8.30842 11.5998 8.30842H7.37484L7.5915 8.52508C7.83317 8.77508 7.83317 9.16675 7.58317 9.41675C7.45817 9.54175 7.29984 9.60008 7.1415 9.60008C6.98317 9.60008 6.82484 9.54175 6.69984 9.41675L5.3915 8.10008C5.14984 7.85842 5.14984 7.45842 5.3915 7.21675L6.69984 5.90841C6.9415 5.66675 7.3415 5.66675 7.58317 5.90841C7.82484 6.15008 7.82484 6.55008 7.58317 6.79175L7.30817 7.06675H11.5998C13.3582 7.06675 14.7915 8.50008 14.7915 10.2584C14.7915 12.0167 13.3582 13.4417 11.5998 13.4417Z" fill="#747B7E"/>
</svg>
